<svg width="240" height="360" viewBox="0 0 240 360" fill="none" xmlns="http://www.w3.org/2000/svg">
<rect width="240" height="360" fill="#1A1B20"/>
<path d="M120 164C111.163 164 104 171.163 104 180C104 188.837 111.163 196 120 196C128.837 196 136 188.837 136 180C136 171.163 128.837 164 120 164Z" fill="#6B6B76"/>
<path fill-rule="evenodd" clip-rule="evenodd" d="M148 180C148 195.464 135.464 208 120 208C104.536 208 92 195.464 92 180C92 164.536 104.536 152 120 152C135.464 152 148 164.536 148 180ZM120 204C133.255 204 144 193.255 144 180C144 166.745 133.255 156 120 156C106.745 156 96 166.745 96 180C96 193.255 106.745 204 120 204Z" fill="#6B6B76"/>
</svg>
